<?xml version="1.0" encoding="UTF-8"?>
<svg id="Calque_1" xmlns="http://www.w3.org/2000/svg" version="1.1" viewBox="0 0 69.84 69.7">
  <!-- Generator: Adobe Illustrator 30.1.0, SVG Export Plug-In . SVG Version: 2.1.1 Build 136)  -->
  <defs>
    <style>
      .st0 {
        fill: #fceb30;
      }
    </style>
  </defs>
  <path class="st0" d="M23.84,19.31l6.01,10.41c1.31-1.28,3.09-2.07,5.06-2.07s3.76.79,5.06,2.07l6.01-10.41L55.57,2.73c.67-1.16-.17-2.61-1.51-2.61h-5.17c-.62,0-1.2.33-1.51.87l-1.39,2.4-9.57,16.58c-.67,1.16-2.34,1.16-3.01,0L23.84,3.39l-1.39-2.4c-.31-.54-.88-.87-1.51-.87h-5.17c-1.34,0-2.18,1.45-1.51,2.61l9.57,16.58h.01Z"/>
  <path class="st0" d="M29.74,39.98c-1.28-1.31-2.07-3.09-2.07-5.06s.79-3.76,2.07-5.06l-10.41-6.01L2.74,14.26c-1.16-.67-2.61.17-2.61,1.51v5.17c0,.62.33,1.2.87,1.51l2.4,1.39,16.58,9.57c1.16.67,1.16,2.34,0,3.01L3.4,45.99l-2.4,1.39c-.54.31-.87.88-.87,1.51v5.17c0,1.34,1.45,2.18,2.61,1.51l16.58-9.57,10.41-6.01h.01Z"/>
  <path class="st0" d="M46,50.51l-6.01-10.41c-1.31,1.28-3.09,2.07-5.06,2.07s-3.76-.79-5.06-2.07l-6.01,10.41-9.57,16.58c-.67,1.16.17,2.61,1.51,2.61h5.17c.62,0,1.2-.33,1.51-.87l1.39-2.4,9.57-16.58c.67-1.16,2.34-1.16,3.01,0l9.57,16.58,1.39,2.4c.31.54.88.87,1.51.87h5.17c1.34,0,2.18-1.45,1.51-2.61l-9.57-16.58h-.03,0Z"/>
  <path class="st0" d="M49.86,33.41l16.58-9.57,2.4-1.39c.54-.31.87-.88.87-1.51v-5.17c0-1.34-1.45-2.18-2.61-1.51l-16.58,9.57-10.41,6.01c1.28,1.31,2.07,3.09,2.07,5.06s-.79,3.76-2.07,5.06l10.41,6.01,16.58,9.57c1.16.67,2.61-.17,2.61-1.51v-5.17c0-.62-.33-1.2-.87-1.51l-2.4-1.39-16.58-9.57c-1.16-.67-1.16-2.34,0-3.01,0,0,0,.03,0,.03Z"/>
</svg>